<svg xmlns="http://www.w3.org/2000/svg" width="224" height="70" fill="none" viewBox="0 0 224 70">
    <path fill="#18EC90" d="M47.362 62.29c1.4 3.463 5.156 5.157 8.84 3.831 3.388-1.252 5.082-4.789 3.904-7.736L39.037 7.844c-1.252-3.021-3.756-4.716-7.219-4.716-3.167 0-5.82 1.695-7.072 4.716L3.532 58.385c-1.252 2.873.516 6.557 3.978 7.736 3.757 1.326 7.514-.295 8.913-3.831l3.242-8.325h24.383l3.315 8.325zM31.818 23.316l7.588 19.155H24.23l7.587-19.155zM79.946 9.243c0-3.83-2.725-6.115-6.409-6.115-3.683 0-6.408 2.284-6.408 6.115v51.279c0 3.83 2.725 6.115 6.408 6.115 3.684 0 6.41-2.284 6.41-6.115V9.243zM103.11 9.243c0-3.83-2.725-6.115-6.408-6.115-3.684 0-6.41 2.284-6.41 6.115v51.279c0 3.83 2.726 6.115 6.41 6.115 3.683 0 6.408-2.284 6.408-6.115V9.243zM126.275 28.989c0-3.832-2.726-6.116-6.409-6.116s-6.409 2.284-6.409 6.116v31.533c0 3.83 2.726 6.115 6.409 6.115s6.409-2.284 6.409-6.115V28.989zm-13.849-18.42c0 4.053 3.388 7.442 7.44 7.442 4.051 0 7.44-3.39 7.44-7.441 0-4.053-3.389-7.442-7.44-7.442-4.052 0-7.44 3.39-7.44 7.442zM153.417 48.807l-8.324-22.25c-1.253-3.241-4.789-4.568-8.325-3.241-3.388 1.4-4.64 4.567-3.241 7.81l13.113 31.017c1.252 2.947 3.609 4.494 6.777 4.494 3.315 0 5.598-1.547 6.851-4.42l13.038-31.092c1.4-3.242.221-6.483-3.315-7.81-3.609-1.4-6.924-.147-8.25 3.242l-8.324 22.25zM220.872 43.503c0-11.052-9.061-20.63-20.995-20.63-12.817 0-21.583 9.431-21.583 21.882 0 12.304 9.429 21.66 21.878 21.66 6.188 0 11.565-1.325 15.322-3.683 2.726-1.695 2.873-4.568 1.768-6.925-1.105-2.285-3.609-3.61-6.335-2.506-2.725 1.18-6.114 2.285-10.313 2.285-4.346 0-7.956-2.21-9.061-5.453h22.763c4.567 0 6.556-2.21 6.556-6.63zm-29.613-3.831c.957-3.168 4.64-5.747 8.618-5.747 3.978 0 7.441 2.579 8.325 5.747h-16.943z"/>
    <path fill="#46CC89" fill-rule="evenodd" d="M45.754 62.935l-2.882-7.239H20.848l-2.813 7.227-.002.004c-1.766 4.461-6.523 6.438-11.092 4.83-4.245-1.45-6.716-6.102-5.003-10.052L23.147 7.18l.001-.004c1.528-3.68 4.82-5.78 8.67-5.78 4.146 0 7.292 2.1 8.819 5.783v.001L61.71 57.73l.005.012c1.592 3.98-.745 8.463-4.912 10.004l-.007.002-.007.002c-4.537 1.634-9.275-.464-11.032-4.811l-.002-.004zM24.747 7.844L3.53 58.385c-1.252 2.873.516 6.557 3.978 7.736 3.757 1.326 7.514-.295 8.913-3.831l3.242-8.325h24.383l3.315 8.325c1.4 3.463 5.156 5.157 8.84 3.831 3.388-1.252 5.082-4.789 3.904-7.736L39.038 7.844c-1.253-3.021-3.757-4.716-7.22-4.716-3.167 0-5.82 1.695-7.071 4.716zm120.346 18.713l8.324 22.25 8.324-22.25c1.326-3.389 4.641-4.641 8.25-3.242 3.536 1.327 4.715 4.568 3.315 7.81l-13.038 31.091c-1.253 2.873-3.536 4.42-6.851 4.42-3.168 0-5.525-1.546-6.777-4.493l-13.113-31.018c-1.399-3.242-.147-6.41 3.242-7.81 3.535-1.326 7.071 0 8.324 3.242zm-13.156 5.255l13.107 31.005.002.003c.739 1.74 1.843 3.15 3.309 4.12 1.465.968 3.189 1.429 5.062 1.429 1.933 0 3.675-.454 5.146-1.415 1.471-.961 2.555-2.354 3.292-4.046l.005-.01 13.036-31.086.004-.008c.851-1.976.966-4.08.204-5.954-.767-1.886-2.342-3.343-4.495-4.153-2.129-.823-4.31-.916-6.227-.17-1.937.752-3.431 2.296-4.254 4.4l-.005.011-6.706 17.926-6.705-17.922-.004-.009c-1.656-4.287-6.291-5.836-10.548-4.24l-.026.01-.027.012c-2.059.85-3.597 2.3-4.358 4.158-.76 1.857-.671 3.944.185 5.932l.003.007zm78.99 21.49c2.726-1.106 5.23.22 6.335 2.504 1.105 2.358.958 5.231-1.768 6.926-3.756 2.358-9.134 3.684-15.322 3.684-12.449 0-21.878-9.357-21.878-21.661 0-12.451 8.766-21.882 21.583-21.882 11.934 0 20.995 9.578 20.995 20.63 0 4.42-1.989 6.63-6.556 6.63h-22.763c.211.618.512 1.198.892 1.732 1.615 2.272 4.651 3.72 8.169 3.72 4.199 0 7.588-1.105 10.313-2.284zm-16.154-1.437c1.349 1.191 3.379 1.988 5.841 1.988 3.703 0 6.737-.926 9.265-1.988h-15.106zm21.64 12.335c-4.113 2.58-9.838 3.948-16.241 3.948-13.391 0-23.61-10.117-23.61-23.393 0-13.356 9.491-23.614 23.315-23.614 12.899 0 22.727 10.362 22.727 22.362 0 2.432-.544 4.616-2.052 6.176-1.25 1.293-2.946 1.938-4.92 2.126 1.384.674 2.507 1.836 3.189 3.247l.005.01.005.01c.671 1.433 1.009 3.116.684 4.778-.334 1.709-1.344 3.256-3.102 4.35zM31.818 23.315l-7.587 19.156h15.175l-7.587-19.156zm0 4.703l5.039 12.721H26.78l5.038-12.72zM79.297 3.474c1.533 1.41 2.382 3.42 2.382 5.77v51.278c0 2.35-.849 4.358-2.382 5.769-1.517 1.394-3.563 2.078-5.759 2.078-2.195 0-4.241-.684-5.757-2.078-1.534-1.41-2.383-3.42-2.383-5.77V9.244c0-2.35.849-4.358 2.383-5.769 1.516-1.394 3.562-2.078 5.757-2.078 2.196 0 4.242.684 5.758 2.078zm23.164 0c1.534 1.41 2.383 3.42 2.383 5.77v51.278c0 2.35-.849 4.358-2.383 5.769-1.517 1.394-3.563 2.078-5.758 2.078s-4.242-.684-5.758-2.078c-1.534-1.41-2.383-3.42-2.383-5.77V9.244c0-2.35.849-4.358 2.383-5.769 1.516-1.394 3.563-2.078 5.758-2.078s4.241.684 5.758 2.078zm23.164 19.745c1.534 1.41 2.383 3.42 2.383 5.77v31.533c0 2.35-.849 4.358-2.383 5.769-1.516 1.394-3.563 2.078-5.758 2.078s-4.242-.684-5.758-2.078c-1.534-1.41-2.383-3.42-2.383-5.77V28.989c0-2.35.849-4.358 2.383-5.769 1.516-1.394 3.563-2.078 5.758-2.078s4.242.684 5.758 2.078zm-5.758-3.476c-5.008 0-9.172-4.165-9.172-9.173 0-5.009 4.164-9.174 9.172-9.174 5.008 0 9.172 4.165 9.172 9.174 0 5.008-4.164 9.173-9.172 9.173zm71.393 19.928h16.943c-.169-.603-.431-1.185-.772-1.731-1.45-2.325-4.332-4.015-7.553-4.015-3.22 0-6.247 1.69-7.792 4.015-.363.546-.644 1.128-.826 1.731zm3.062-1.731h10.93c-1.238-1.327-3.173-2.283-5.374-2.283-2.211 0-4.236.96-5.556 2.283zM73.537 3.128c3.684 0 6.41 2.284 6.41 6.115v51.279c0 3.83-2.726 6.115-6.41 6.115-3.683 0-6.408-2.284-6.408-6.115V9.243c0-3.83 2.725-6.115 6.408-6.115zm29.574 6.115c0-3.83-2.726-6.115-6.41-6.115-3.682 0-6.408 2.284-6.408 6.115v51.279c0 3.83 2.725 6.115 6.409 6.115 3.683 0 6.409-2.284 6.409-6.115V9.243zm16.755 13.63c3.683 0 6.409 2.284 6.409 6.115v31.534c0 3.83-2.726 6.115-6.409 6.115s-6.409-2.284-6.409-6.115V28.988c0-3.83 2.726-6.115 6.409-6.115zm0-4.862c-4.052 0-7.44-3.39-7.44-7.441 0-4.053 3.388-7.442 7.44-7.442 4.051 0 7.44 3.39 7.44 7.442s-3.389 7.44-7.44 7.44z" clip-rule="evenodd"/>
</svg>
