<svg xmlns="http://www.w3.org/2000/svg" width="375" height="370" fill="none" viewBox="0 0 375 370">
    <path fill="#BEEDAF" d="M315.42 333.968s81.63 96.557 12.941 131.895c-33.348 17.42-43.303-16.425-43.303-16.425l-5.475-113.479 35.837-1.991z"/>
    <path fill="#000" d="M283.564 412.607c-.497 0-.995-.497-.995-.995l-3.982-75.155c0-.498.498-1.494.995-1.494l35.838-1.99c.498 0 .995 0 .995.497.498.498 26.878 32.352 36.833 65.699 0 .498 0 1.493-.995 1.493-.498 0-1.493 0-1.493-.995-8.96-30.859-32.851-60.224-36.336-64.206l-33.846 1.991 3.484 74.16c.498.498 0 .995-.498.995z"/>
    <path fill="#BEEDAF" d="M49.625 337.452s-81.63 96.557-12.941 131.895c33.348 17.42 43.303-16.425 43.303-16.425l5.475-113.479-35.837-1.991z"/>
    <path fill="#000" d="M81.978 416.091c-.498 0-.498 0 0 0-.995 0-1.493-.497-.995-1.493l3.484-74.16-33.847-1.99c-3.484 3.981-26.878 33.347-36.335 64.205 0 .498-.995.995-1.493.995-.996 0-.996-.497-.996-.995 9.955-33.347 36.833-65.699 36.833-65.699.498-.497.498-.497.996-.497l35.837 1.991c.498 0 .996.497.996 1.493l-3.982 75.155c.498.498 0 .995-.498.995z"/>
    <path fill="#BEEDAF" d="M76.006 340.936s-31.358 70.676-15.43 156.781c9.457 50.269 44.796 77.146 44.796 77.146s67.693 55.247 164.256 1.991c38.326-20.904 48.281-77.146 48.281-77.146s17.421-110.991-16.924-158.772c-59.729-83.616-224.98 0-224.98 0z"/>
    <path fill="#000" d="M186.007 601.242c-49.774 0-81.132-24.886-81.63-25.384-.498 0-36.335-27.872-45.294-78.141-15.928-86.105 15.43-156.781 15.43-157.776 0-.498.497-.498.497-.498 1.493-.996 166.744-83.119 226.473.498 17.919 24.886 21.403 67.191 21.403 98.05 0 33.347-4.48 61.219-4.48 61.717 0 .498-10.452 57.237-48.778 78.141-30.86 17.42-59.232 23.393-83.621 23.393zM77.001 341.932c-2.489 5.972-30.362 74.159-15.43 155.785 8.96 49.274 44.299 76.151 44.299 76.648.498.498 68.191 54.252 162.762 1.991 37.331-20.406 47.286-75.653 47.286-76.15 0-.996 16.923-110.991-16.924-158.274-56.245-80.133-213.033-4.48-221.993 0z"/>
    <path fill="#FFC" d="M110.848 336.954S88.45 390.21 99.898 455.909c6.47 38.324 31.855 58.73 31.855 58.73s47.784 41.809 115.974 1.493c26.878-15.927 33.847-58.73 33.847-58.73s11.946-84.114-11.946-120.448c-41.81-63.21-158.78 0-158.78 0z"/>
    <path fill="#000" d="M188.496 534.548c-9.457 0-17.919-1.493-24.39-2.986-20.407-5.475-32.353-15.927-32.851-15.927 0 0-25.384-20.904-32.353-59.229-11.448-65.201 10.95-118.954 10.95-119.452 0-.497.498-.497.498-.497.996-.498 117.965-63.21 160.273.497 24.39 36.334 12.444 117.959 11.946 121.443-.498 1.991-7.466 43.302-34.344 59.229-22.399 12.94-42.806 16.922-59.729 16.922zm-76.653-197.096c-1.991 4.977-21.403 56.242-10.452 117.959 6.47 37.329 30.86 57.735 31.358 57.735 0 0 11.945 10.452 31.855 15.429 18.417 4.978 47.783 6.471 82.625-14.433 26.381-15.43 33.349-57.238 33.349-57.736 0-.995 11.946-84.114-11.946-119.452-39.819-59.228-149.322-2.986-156.789.498z"/>
    <path fill="#000" d="M202.432 362.338c-49.276 0-92.58-11.945-93.078-12.443-.497 0-.995-.995-.995-1.493 0-.498.995-.996 1.493-.996.996.498 94.571 26.877 163.26.996.497 0 1.493 0 1.493.498 0 .497 0 1.493-.498 1.493-22.398 8.959-47.783 11.945-71.675 11.945z"/>
    <path fill="#BEEDAF" d="M14.783 63.21S48.63.995 77.997.995c33.348 0 46.29 10.95 70.181 66.695 0 0 50.77-15.43 92.083.497 0 0 23.891-59.228 62.218-57.237 19.412.995 53.756 15.927 67.693 64.205 41.81 145.334 42.308 174.201 27.375 211.53-6.47 16.425-29.864 49.772-72.67 53.753-20.407 1.991-81.132-7.963-112.988-13.438-12.941-1.991-25.882-1.991-38.823.996-29.865 6.47-88.599 17.42-123.44 9.954-25.883-5.475-65.703-21.402-74.662-51.265-28.371-94.566 39.82-223.475 39.82-223.475z"/>
    <path fill="#000" d="M240.261 69.68c-40.815-15.927-91.087-.995-91.585-.497-.498 0-1.493 0-1.493-.498-15.928-38.324-26.878-53.754-40.815-61.22-.498-.497-.996-.995-.498-1.492.498-.498.996-.996 1.493-.498 14.435 7.466 25.385 23.392 41.811 60.721 7.466-1.99 53.258-13.438 90.589.498 2.986-6.968 20.905-45.292 48.779-54.749.498 0 1.493 0 1.493.996 0 .497 0 1.493-.995 1.493-29.367 9.954-47.784 54.25-47.784 54.749 0 0-.498.497-.995.497zM318.406 341.931c-11.448 0-29.864-1.99-54.751-5.474-.498 0-.996-.498-.996-1.494 0-.497.498-.995 1.493-.995 29.865 3.982 50.77 5.973 60.227 4.977 41.811-3.982 62.716-35.835 68.191-45.79.498-.497.995-.995 1.493-.497.498.497.996.995.498 1.493-5.475 9.954-26.878 42.803-70.182 46.785-.995.996-3.484.995-5.973.995zm-239.912 0c-10.95 0-20.905-.995-28.869-2.488-10.452-2.489-64.208-15.429-75.657-52.26-1.493-3.982-2.488-8.462-3.484-12.941 0-.498.498-1.493.996-1.493.497 0 1.493.498 1.493.995.995 4.48 1.99 8.461 3.484 12.941 8.462 27.374 44.797 44.297 73.666 50.767 7.466 1.493 16.923 2.489 27.874 2.489 3.484 0 7.466 0 10.95-.498.498 0 .995.498.995.995 0 .498-.497 1.493-.995 1.493H78.494zm25.385-1.493c-.498 0-.995-.497-.995-.995s.497-1.493.995-1.493c25.883-2.489 51.765-7.466 69.186-10.95 12.942-2.986 26.381-2.986 39.322-.995 8.959 1.493 22.896 3.981 37.829 5.972.497 0 .995.498.995 1.493 0 .996-.498.996-1.493.996-14.932-2.489-28.869-4.48-37.829-5.973-12.443-1.991-25.882-1.991-38.326.996-17.421 3.981-43.801 8.959-69.684 10.949zm296.157-58.233s-.498 0 0 0c-.995-.497-1.493-.995-.995-1.493 4.479-12.94 6.47-23.89 6.47-37.826 0-22.895-5.973-54.251-19.412-106.014 0-.498 0-1.493.996-1.493.498 0 1.493 0 1.493.995C402.027 188.137 408 219.991 408 242.886c0 13.936-1.991 25.383-6.968 38.822 0 0-.498.497-.996.497zm-430.547-21.899c-.498 0-.996-.498-.996-.996-.995-7.465-1.493-15.926-1.493-23.89 0-44.794 13.44-90.584 24.39-120.945 0-.498.995-.996 1.493-.498.497 0 .995.996.497 1.493-10.95 30.361-24.389 75.653-24.389 119.95 0 8.461.498 16.425 1.493 23.89.498.498 0 .996-.995.996zM383.61 123.434c-.498 0-.996-.498-.996-.996-3.982-13.936-7.964-29.365-13.439-46.785-16.923-58.73-60.725-62.712-65.702-63.21-.498 0-.995-.498-.995-1.493 0-.498.497-.996 1.493-.996 22.896 1.493 54.751 19.411 68.191 65.201 4.977 17.42 9.457 32.85 13.439 46.786-.996.497-.996 1.493-1.991 1.493zM-2.14 102.032c-.995 0-1.493-.995-.995-1.493 8.461-20.904 15.43-34.84 16.923-37.827C15.28 60.224 48.63 0 78.494 0c5.475 0 10.453.498 14.933.995.497 0 .995.498.995 1.494 0 .497-.498.995-1.493.995-3.982-.498-8.96-.995-14.435-.995-28.371 0-61.72 60.721-62.218 61.717-1.493 2.488-8.461 16.424-16.923 37.328-.497.498-.995.498-1.493.498zM332.343 157.279C183.02 109 68.54 155.288 67.544 155.785c-.498.498-1.493 0-1.493-.497-.498-.498 0-1.494.498-1.494.995-.497 116.471-47.283 266.292.996.498 0 .996.995.996 1.493-.498.498-.996.996-1.494.996zM74.512 262.794c-6.47 0-12.443-.497-17.42-1.493-52.761-9.954-67.694-62.214-67.694-62.712 0-.498 0-1.493.996-1.493.498 0 1.493 0 1.493.995 0 0 14.932 51.265 66.2 60.722 14.434 2.986 40.317.497 67.195-2.489 21.901-1.991 44.299-3.982 64.707-3.982 19.412 0 31.855.996 46.788 2.489 17.918 1.493 37.828 3.484 75.656 3.982 24.888.497 53.259-3.982 69.187-61.219 0-.498.995-.996 1.493-.996.498 0 .995.996.995 1.493-17.918 63.708-52.76 63.21-71.675 63.21-37.828-.497-57.738-2.488-75.656-3.981-14.933-1.494-27.376-2.489-46.788-2.489-20.408 0-42.806 1.991-64.707 3.982-18.416 1.991-36.335 3.981-50.77 3.981z"/>
    <path fill="#fff" d="M23.743 244.877l23.394-39.32 16.923 54.749c.498.498-19.91-.498-40.317-15.429z"/>
    <path fill="#000" d="M64.558 261.799c-.996 0-20.906-.995-41.313-15.927-.498-.497-.498-.995-.498-1.493l23.394-39.32c0-.497.498-.497.995-.497.498 0 .996.497.996.995l16.923 54.749v.995c0 .498-.498.498-.498.498zm-38.825-16.922c15.928 11.447 31.856 13.936 37.331 14.434L46.64 208.543l-20.906 36.334z"/>
    <path fill="#fff" d="M358.226 244.877l-23.394-39.32-16.923 54.251c0 .498 25.385 1.493 40.317-14.931z"/>
    <path fill="#000" d="M319.402 261.301h-1.494c-.497 0-.497 0-.995-.497-.498-.498-.498-.498 0-.996l16.923-54.251c0-.498.498-.995.996-.995.497 0 .995 0 .995.497l23.394 39.32c.498.498 0 .995 0 1.493-12.941 14.434-34.344 15.429-39.819 15.429zm15.43-52.758l-15.43 50.27c5.475 0 24.887-1.493 37.33-13.936l-21.9-36.334zM173.065 218c4.948 0 8.96-5.125 8.96-11.448 0-6.322-4.012-11.447-8.96-11.447-4.948 0-8.959 5.125-8.959 11.447 0 6.323 4.011 11.448 8.959 11.448zM213.383 218c4.948 0 8.959-5.125 8.959-11.448 0-6.322-4.011-11.447-8.959-11.447-4.948 0-8.96 5.125-8.96 11.447 0 6.323 4.012 11.448 8.96 11.448zM79.988 81.626c7.147 0 12.941-7.8 12.941-17.42 0-9.621-5.794-17.42-12.941-17.42-7.148 0-12.942 7.799-12.942 17.42 0 9.62 5.794 17.42 12.942 17.42zM302.976 81.626c7.148 0 12.942-7.8 12.942-17.42 0-9.621-5.794-17.42-12.942-17.42-7.147 0-12.941 7.799-12.941 17.42 0 9.62 5.794 17.42 12.941 17.42z"/>
</svg>
