<svg xmlns="http://www.w3.org/2000/svg" width="224" height="70" fill="none" viewBox="0 0 224 70">
    <g clip-path="url(#clip0)">
        <path fill="#46CC89" fill-rule="evenodd" d="M44.471 63.668l-2.533-6.383H21.816l-2.468 6.362-.004.008c-2.06 5.224-7.625 7.495-12.847 5.654-4.877-1.676-7.914-7.126-5.83-11.96L21.87 6.668l.002-.007C23.622 2.434 27.432 0 31.832 0c4.695 0 8.358 2.435 10.107 6.665l.001.003 21.075 50.727.008.02c1.926 4.831-.93 10.095-5.724 11.873l-.012.004-.013.005c-5.226 1.888-10.755-.545-12.8-5.621l-.003-.008zM39.051 7.87c-1.253-3.03-3.757-4.731-7.22-4.731-3.167 0-5.82 1.7-7.072 4.731L3.544 58.582c-1.252 2.883.516 6.579 3.978 7.762 3.757 1.33 7.514-.296 8.913-3.844l3.242-8.354H44.06l3.315 8.353c1.4 3.475 5.156 5.175 8.84 3.845 3.388-1.257 5.082-4.805 3.904-7.762L39.05 7.87zm106.054 18.777l8.325 22.325 8.324-22.325c1.326-3.4 4.641-4.657 8.25-3.253 3.536 1.33 4.715 4.583 3.315 7.836L160.28 62.426c-1.252 2.883-3.535 4.435-6.85 4.435-3.168 0-5.525-1.552-6.778-4.51L133.54 31.23c-1.4-3.253-.147-6.431 3.241-7.836 3.536-1.33 7.072 0 8.324 3.253zm-14.437 5.827l13.105 31.105c.83 1.96 2.098 3.61 3.824 4.754 1.726 1.145 3.727 1.667 5.833 1.667 2.155 0 4.174-.51 5.91-1.648 1.736-1.138 2.982-2.769 3.808-4.672l.009-.02 13.034-31.186.008-.017c.972-2.269 1.135-4.77.212-7.048-.932-2.3-2.828-4.016-5.292-4.948-2.39-.926-4.933-1.064-7.229-.168-2.335.91-4.098 2.768-5.05 5.21l-.008.022-5.402 14.488-5.4-14.482-.006-.015c-1.982-5.148-7.504-6.881-12.341-5.061l-.049.018-.047.02c-2.353.975-4.195 2.678-5.117 4.937-.92 2.255-.79 4.74.193 7.033l.005.011zm80.272 21.007l.1-.04c1.171-.452 2.299-.455 3.289-.127.111.038.221.079.329.124 1.131.474 2.055 1.39 2.617 2.556 1.105 2.366.958 5.249-1.768 6.949-3.757 2.366-9.134 3.696-15.322 3.696-12.449 0-21.879-9.388-21.879-21.733 0-12.493 8.767-21.955 21.584-21.955 11.934 0 20.995 9.61 20.995 20.698 0 4.162-1.752 6.371-5.742 6.628-.262.017-.533.025-.814.025h-22.763c.411 1.21 1.169 2.277 2.182 3.14 1.71 1.456 4.149 2.33 6.879 2.33 4.199 0 7.587-1.108 10.313-2.291zm7.854-.81c1.028-.413 1.968-1.013 2.775-1.85 1.864-1.935 2.444-4.55 2.444-7.172 0-12.807-10.446-23.838-24.123-23.838-14.637 0-24.712 10.961-24.712 25.095 0 14.106 10.857 24.872 25.007 24.872 6.575 0 12.58-1.404 16.981-4.173 2.076-1.298 3.322-3.179 3.732-5.285.394-2.021-.022-4.014-.79-5.658l-.008-.017-.009-.018c-.341-.709-.779-1.368-1.297-1.956zM31.831 23.395l-7.587 19.22h15.175l-7.588-19.22zm0 8.524l-2.983 7.557h5.967l-2.984-7.557zM80.254 2.455c1.85 1.707 2.834 4.11 2.834 6.82v51.45c0 2.71-.984 5.113-2.834 6.82C78.435 69.223 76.03 70 73.55 70c-2.48 0-4.885-.777-6.703-2.455-1.85-1.707-2.834-4.11-2.834-6.82V9.275c0-2.71.984-5.113 2.834-6.82C68.666.777 71.07 0 73.55 0c2.48 0 4.885.777 6.704 2.455zm23.164 0c1.85 1.707 2.834 4.11 2.834 6.82v51.45c0 2.71-.984 5.113-2.834 6.82C101.599 69.223 99.195 70 96.714 70c-2.48 0-4.884-.777-6.703-2.455-1.85-1.707-2.834-4.11-2.834-6.82V9.275c0-2.71.984-5.113 2.834-6.82C91.83.777 94.234 0 96.715 0c2.48 0 4.884.777 6.703 2.455zm23.164 19.811c1.85 1.707 2.834 4.111 2.834 6.82v31.64c0 2.708-.984 5.112-2.834 6.82-1.818 1.677-4.223 2.454-6.703 2.454-2.48 0-4.885-.777-6.703-2.455-1.851-1.707-2.835-4.11-2.835-6.82V29.086c0-2.709.984-5.113 2.835-6.82.853-.788 1.837-1.377 2.896-1.78-3.933-1.553-6.762-5.424-6.762-9.88 0-5.8 4.789-10.606 10.569-10.606 5.78 0 10.568 4.806 10.568 10.605 0 4.457-2.829 8.328-6.762 9.88 1.06.404 2.043.993 2.897 1.781zm64.69 17.539h16.942c-.321-1.157-.984-2.235-1.889-3.139-1.583-1.58-3.904-2.627-6.435-2.627-2.53 0-4.941 1.047-6.607 2.627-.954.904-1.663 1.982-2.011 3.139zM73.55 3.139c3.684 0 6.41 2.292 6.41 6.136v51.45c0 3.844-2.726 6.136-6.41 6.136-3.683 0-6.409-2.292-6.409-6.136V9.275c0-3.844 2.726-6.136 6.41-6.136zm29.573 6.136c0-3.844-2.725-6.136-6.409-6.136-3.683 0-6.408 2.292-6.408 6.136v51.45c0 3.844 2.725 6.136 6.409 6.136 3.683 0 6.408-2.292 6.408-6.136V9.275zm16.756 13.676c3.683 0 6.409 2.291 6.409 6.135v31.64c0 3.843-2.726 6.135-6.409 6.135-3.684 0-6.409-2.292-6.409-6.136V29.086c0-3.844 2.725-6.135 6.409-6.135zm0-4.88c-4.052 0-7.44-3.4-7.44-7.466 0-4.066 3.388-7.466 7.44-7.466 4.051 0 7.44 3.4 7.44 7.466 0 4.066-3.389 7.466-7.44 7.466z" clip-rule="evenodd"/>
        <path fill="#fff" d="M47.36 62.5c1.4 3.474 5.157 5.174 8.84 3.844 3.39-1.257 5.083-4.805 3.905-7.762L39.037 7.87c-1.253-3.03-3.757-4.731-7.22-4.731-3.167 0-5.82 1.7-7.071 4.731L3.53 58.582c-1.252 2.883.516 6.579 3.978 7.762 3.757 1.33 7.514-.296 8.913-3.844l3.242-8.354h24.383L47.36 62.5zM31.818 23.393l7.588 19.22H24.23l7.587-19.22zM79.945 9.275c0-3.844-2.725-6.136-6.408-6.136-3.684 0-6.41 2.292-6.41 6.136v51.45c0 3.844 2.726 6.136 6.41 6.136 3.683 0 6.408-2.292 6.408-6.136V9.275zM103.109 9.275c0-3.844-2.725-6.136-6.408-6.136-3.684 0-6.41 2.292-6.41 6.136v51.45c0 3.844 2.726 6.136 6.41 6.136 3.683 0 6.408-2.292 6.408-6.136V9.275zM126.274 29.086c0-3.844-2.726-6.135-6.409-6.135s-6.409 2.291-6.409 6.135v31.64c0 3.843 2.726 6.135 6.409 6.135s6.409-2.292 6.409-6.136V29.086zm-13.849-18.48c0 4.065 3.388 7.466 7.44 7.466 4.051 0 7.44-3.4 7.44-7.467 0-4.065-3.389-7.466-7.44-7.466-4.052 0-7.44 3.4-7.44 7.466zM153.416 48.971l-8.324-22.324c-1.253-3.253-4.789-4.584-8.325-3.253-3.388 1.405-4.64 4.583-3.241 7.836l13.113 31.122c1.252 2.957 3.609 4.509 6.777 4.509 3.315 0 5.598-1.552 6.851-4.435l13.038-31.196c1.4-3.253.221-6.505-3.315-7.836-3.609-1.404-6.924-.148-8.25 3.253l-8.324 22.325zM220.871 43.65c0-11.09-9.061-20.7-20.995-20.7-12.817 0-21.583 9.463-21.583 21.956 0 12.345 9.429 21.733 21.878 21.733 6.188 0 11.565-1.33 15.322-3.696 2.726-1.7 2.873-4.583 1.768-6.949-1.105-2.291-3.609-3.622-6.335-2.513-2.725 1.183-6.114 2.291-10.313 2.291-4.346 0-7.956-2.217-9.061-5.47h22.763c4.567 0 6.556-2.218 6.556-6.653zm-29.613-3.845c.957-3.179 4.641-5.766 8.618-5.766 3.978 0 7.441 2.587 8.325 5.766h-16.943z"/>
    </g>
    <defs>
        <clipPath id="clip0">
            <path fill="#fff" d="M0 0H224V70H0z"/>
        </clipPath>
    </defs>
</svg>
