<svg xmlns="http://www.w3.org/2000/svg" width="375" height="264" fill="none" viewBox="0 0 375 264">
    <g clip-path="url(#clip0)">
        <path fill="#29D37A" d="M300.056 161.793c.416 3.853-1.041 13.234-34.769 11.559-7.079-.335-15.407-4.69-24.984-3.183-81.198 12.564-86.194-39.032 40.807-17.087 11.034 1.843 18.321 4.691 18.946 8.711z"/>
    </g>
    <path fill="#FFC" d="M178.108 102.367c6.858 6.723 10.699 13.882 8.614 16.013-2.085 2.132-9.382-1.584-16.24-8.252-6.858-6.668-9.601-16.942-9.601-16.942s10.369 2.514 17.227 9.181z"/>
    <path fill="#000" d="M184.968 119.473c-1.262 0-2.853-.491-4.773-1.475-3.128-1.585-6.639-4.263-9.986-7.542-6.913-6.722-9.711-17.051-9.766-17.16-.054-.165 0-.329.11-.438.11-.11.274-.164.439-.11.11 0 10.534 2.624 17.392 9.346 3.347 3.279 6.09 6.777 7.736 9.838 1.756 3.279 2.085 5.629.878 6.831-.439.437-1.152.71-2.03.71zM161.65 93.842c.823 2.514 3.621 10.493 9.218 15.903 3.292 3.225 6.748 5.794 9.766 7.378 2.798 1.421 4.937 1.749 5.76.93.823-.82.439-3.006-1.042-5.739-1.591-3.006-4.28-6.394-7.571-9.564-5.597-5.465-13.607-8.143-16.131-8.908z"/>
    <path fill="#E8E8E8" d="M327.561 73.02l-1.153.874c-.109.11-.329.054-.439-.055l-13.167-17.106c-.11-.11-.055-.328.055-.437l1.152-.874c.11-.11.329-.055.439.054l13.167 17.106c.055.164.055.328-.054.437z"/>
    <path fill="#000" d="M326.354 73.95c-.384 0-.768-.164-.988-.492l-12.29-15.959c-.438-.546-.329-1.366.22-1.748.549-.438 1.372-.328 1.756.218l12.289 15.958c.439.547.329 1.367-.219 1.75-.275.163-.494.273-.768.273zm-12.29-18.036c-.165 0-.329.055-.494.164-.329.274-.384.765-.164 1.093l12.289 15.959c.11.164.33.273.549.328.219 0 .439 0 .603-.164.33-.273.385-.765.165-1.093l-12.29-15.959c-.164-.218-.438-.328-.658-.328z"/>
    <path fill="#E8E8E8" d="M323.445 76.19l-1.152.874c-.11.109-.329.054-.439-.055l-13.167-17.106c-.11-.11-.055-.328.055-.437l1.152-.875c.11-.109.329-.054.439.055L323.5 75.752c.11.11.055.328-.055.437z"/>
    <path fill="#000" d="M322.238 77.064c-.384 0-.768-.163-.988-.491l-12.289-15.959c-.22-.273-.274-.6-.274-.929.054-.328.219-.656.493-.82.549-.437 1.372-.328 1.756.219l12.29 15.958c.219.274.274.602.274.93 0 .327-.22.655-.494.82-.219.163-.494.272-.768.272zm-12.29-18.035c-.164 0-.329.055-.493.164-.165.11-.275.328-.33.547-.054.218.055.437.165.601l12.29 15.958c.274.328.768.438 1.097.164.165-.109.274-.328.329-.546.055-.219-.055-.438-.164-.601l-12.29-15.959c-.11-.218-.384-.328-.604-.328z"/>
    <path fill="#FFC" d="M291.679 74.058s28.42 2.022 5.76 39.786l-5.76-39.786z"/>
    <path fill="#000" d="M297.495 114.282h-.11c-.219-.055-.329-.219-.384-.383l-5.761-39.786c0-.164 0-.274.11-.383.11-.11.219-.164.384-.164.384 0 9.327.765 13.277 8.198 3.786 7.269 1.427 18.09-7.077 32.299-.11.164-.275.219-.439.219zm-5.212-39.678l5.486 37.82c7.736-13.28 9.931-23.446 6.364-30.168-3.072-5.957-9.82-7.378-11.85-7.652z"/>
    <path fill="#E8E8E8" d="M319.112 79.851l-1.208.874c-.109.11-.329.055-.438-.054l-13.168-17.106c-.11-.11-.055-.328.055-.438l1.152-.874c.11-.11.329-.055.439.055l13.168 17.106c.109.164.109.328 0 .437z"/>
    <path fill="#000" d="M317.905 80.726h-.165c-.329-.055-.658-.219-.822-.492l-12.29-15.959c-.22-.273-.274-.6-.274-.929.054-.327.219-.655.493-.82.275-.218.604-.273.933-.273.329.055.658.219.823.492l12.29 15.959c.219.273.274.6.274.929-.055.328-.22.656-.494.82-.219.218-.494.273-.768.273zm-12.29-17.98c-.164 0-.329.054-.493.163-.165.11-.275.328-.33.547-.054.218.055.437.165.6l12.29 15.96c.109.163.329.272.548.327.22 0 .439-.055.604-.164.164-.11.274-.328.329-.546.055-.219-.055-.438-.165-.602l-12.289-15.958c-.11-.164-.329-.273-.549-.328h-.11z"/>
    <path fill="#FFC" d="M178.31 107.832c-4.005-35.906 30.669-86.568 56.017-89.356 25.347-2.787 54.48 29.294 62.491 75.42 5.267 30.277-6.42 46.29-44.66 52.247-26.061 4.044-45.318 2.623-57.718-6.23-9.052-6.504-14.429-16.942-16.13-32.081z"/>
    <path fill="#000" d="M227.36 148.712c-14.375 0-25.238-2.787-33.193-8.471-3.895-2.788-7.187-6.395-9.711-10.657-.11-.219-.055-.547.164-.656.22-.11.549-.055.659.164 2.469 4.153 5.651 7.651 9.437 10.384 7.79 5.574 18.489 8.307 32.644 8.307 2.688 0 5.541-.11 8.504-.274.274-.054.494.164.494.438 0 .273-.165.492-.439.492-2.963.218-5.816.273-8.559.273zm14.265-.765c-.22 0-.439-.164-.494-.438 0-.273.165-.491.439-.546 3.292-.328 6.803-.82 10.479-1.366 21.123-3.279 34.016-9.564 40.435-19.73.165-.218.439-.273.658-.164.22.164.275.438.165.656-6.639 10.384-19.696 16.833-41.093 20.167-3.676.601-7.188 1.093-10.589 1.421 0 0 .055 0 0 0zm-59.309-23.227c-.164 0-.384-.11-.439-.274-1.975-4.754-3.346-10.329-4.005-16.559-.219-1.913-.329-3.935-.329-5.957 0-14.592 5.706-32.3 15.581-48.586.11-.218.439-.273.659-.164.219.164.274.438.164.656-9.82 16.122-15.416 33.611-15.416 48.094 0 2.022.109 3.989.329 5.848.713 6.175 2.03 11.64 3.95 16.286.11.218 0 .546-.274.601-.11.055-.165.055-.22.055zm113.186-3.17c-.055 0-.11 0-.165-.055-.219-.109-.384-.382-.274-.601 1.646-4.208 2.469-8.963 2.469-14.483 0-3.771-.384-7.979-1.152-12.515-1.701-9.892-4.445-19.456-8.12-28.31-.11-.218 0-.546.274-.6.219-.11.549 0 .603.272 3.731 8.963 6.474 18.527 8.23 28.529.768 4.59 1.207 8.853 1.207 12.679 0 5.629-.823 10.493-2.524 14.811-.164.163-.329.273-.548.273zm-9.163-60.882c-.164 0-.329-.11-.439-.274-9.601-20.276-23.975-35.195-38.46-40.005-.274-.055-.384-.328-.329-.601.055-.273.384-.383.604-.328 14.978 4.919 29.188 19.675 39.063 40.497.11.219 0 .547-.219.656-.11.055-.165.055-.22.055zm-89.703-11.423c-.11 0-.165 0-.275-.054-.219-.164-.274-.438-.109-.656 11.851-17.543 26.444-29.239 38.076-30.55 2.524-.274 5.157-.22 7.791.163.274.055.438.274.384.547-.055.273-.275.437-.549.383-2.524-.383-5.048-.438-7.517-.164-11.411 1.257-25.731 12.788-37.417 30.113-.11.164-.22.218-.384.218zM227.378 46.35c-.164 0-.329-.055-.384-.22-.164-.218-.055-.491.165-.655l7.077-4.427c.22-.11.494-.11.604.11l3.731 4.426c.164.219.164.492-.055.656-.22.164-.494.164-.659-.055l-3.456-4.099-6.748 4.209c-.11 0-.22.054-.275.054zM248.665 46.35c-.11 0-.165 0-.275-.055-.219-.164-.274-.438-.164-.656l3.456-5.41c.055-.11.22-.22.329-.22.165 0 .275 0 .384.11l3.676 3.17c.22.164.22.492.055.656-.164.218-.494.218-.658.054l-3.237-2.842-3.182 4.919c-.11.164-.275.273-.384.273zM233.577 63.893c1.394 0 2.524-1.59 2.524-3.553 0-1.962-1.13-3.552-2.524-3.552-1.393 0-2.523 1.59-2.523 3.552s1.13 3.553 2.523 3.553zM252.233 62.034c1.394 0 2.524-1.59 2.524-3.552s-1.13-3.552-2.524-3.552c-1.394 0-2.524 1.59-2.524 3.552s1.13 3.552 2.524 3.552z"/>
    <path fill="#FFDB77" d="M235.223 72.637l6.364-6.668c1.372-1.311 5.87-2.459 7.736-2.076l9.437 2.513-18.984 5.356-4.553.875z"/>
    <path fill="#000" d="M235.224 73.129c-.164 0-.329-.11-.439-.274-.109-.163-.054-.382.055-.546l6.365-6.668c1.481-1.42 6.144-2.678 8.229-2.186l9.492 2.514c.219.055.329.219.329.438 0 .218-.165.382-.329.437L239.943 72.2l-4.664.874c0 .055-.055.055-.055.055zm13.168-8.8c-2.03 0-5.377.985-6.474 2.023l-5.322 5.574 3.127-.6 17.283-4.865-7.791-2.077c-.22-.054-.549-.054-.823-.054z"/>
    <path fill="#FFDB77" d="M248.884 80.725l-10.918-8.58 16.788-4.481s.11 7.979-3.895 12.843c-.494.601-1.372.656-1.975.218z"/>
    <path fill="#000" d="M249.763 81.49c-.384 0-.823-.109-1.152-.382l-10.918-8.58c-.165-.11-.219-.274-.165-.492.055-.164.165-.328.33-.383l16.788-4.481c.165-.055.274 0 .384.054.11.11.165.219.165.383 0 .328.055 8.198-4.005 13.171-.33.492-.878.71-1.427.71zm-.603-1.147c.439.273.987.218 1.316-.164 3.237-3.935 3.676-10.002 3.786-11.914l-15.252 4.044 10.15 8.034z"/>
    <path fill="#FF9577" d="M221.452 74.44c2.728 0 4.938-2.104 4.938-4.7 0-2.595-2.21-4.7-4.938-4.7-2.727 0-4.937 2.105-4.937 4.7 0 2.596 2.21 4.7 4.937 4.7zM266.442 68.538c2.727 0 4.938-2.104 4.938-4.7s-2.211-4.7-4.938-4.7-4.938 2.104-4.938 4.7 2.211 4.7 4.938 4.7z"/>
    <path fill="#000" d="M239.832 71.817l11.192 3.006s3.237-4.208 3.183-7.16l-14.375 4.154z"/>
    <path fill="#AA8D44" d="M212.18 146.417v8.034l-8.449 2.568c-1.317.383-.988 2.296.329 2.296h6.419l-.11 4.536c-.054 1.257 1.591 1.749 2.25.71l3.017-4.645 4.17 2.241c1.043.546 2.14-.711 1.372-1.64l-4.554-5.848v-8.197h-4.444v-.055z"/>
    <path fill="#000" d="M211.577 165.545c-.165 0-.33 0-.549-.055-.713-.218-1.207-.874-1.207-1.639l.11-4.044h-5.926c-.823 0-1.536-.602-1.646-1.421-.109-.82.33-1.585 1.153-1.804l8.12-2.459v-7.706c0-.273.219-.492.493-.492h4.444c.275 0 .494.219.494.492v8.034l4.444 5.738c.494.601.439 1.421-.055 1.968-.494.601-1.262.71-1.975.382l-3.786-2.022-2.743 4.263c-.274.492-.768.765-1.371.765zm1.097-18.691v7.542c0 .219-.165.383-.329.437l-8.449 2.569c-.439.109-.549.492-.494.765.055.273.219.601.658.601h6.419c.11 0 .275.055.33.164.109.11.164.219.109.328l-.109 4.536c0 .437.274.656.548.711.275.109.604.054.823-.328l3.018-4.646c.109-.218.384-.273.603-.164l4.17 2.241c.329.164.603.055.768-.164.165-.164.219-.492 0-.765l-4.554-5.848c-.055-.109-.109-.164-.109-.273v-7.706h-3.402z"/>
    <path fill="#AA8D44" d="M264.082 143.794l1.646 7.869 8.065-.437c1.317.11 1.482 2.022.165 2.296l-6.035 1.202 3.072 4.481c.274 1.203-1.207 2.023-2.085 1.148l-5.102-3.88-4.005 4.208c-.933.765-2.25-.273-1.701-1.312l3.237-6.667-1.701-7.979 4.444-.929z"/>
    <path fill="#000" d="M259.145 161.446c-.329 0-.658-.109-.988-.328-.603-.492-.768-1.257-.439-1.913l3.183-6.558-1.646-7.87c-.055-.273.109-.492.384-.546l4.334-.929c.11 0 .274 0 .384.054.11.055.165.164.22.328l1.591 7.488 7.681-.383c.877.055 1.536.711 1.591 1.53.055.82-.494 1.531-1.317 1.695l-5.322 1.038 2.634 3.935c.054.055.054.109.054.164.165.765-.164 1.53-.823 1.858-.713.383-1.481.273-2.03-.273l-4.663-3.553-3.676 3.935c-.384.219-.768.328-1.152.328zm1.152-16.395l1.591 7.542c0 .109 0 .218-.055.327l-3.237 6.668c-.164.328 0 .601.165.765.219.164.494.219.768 0l3.95-4.208c.165-.164.439-.219.659-.055l5.102 3.881c.329.327.713.327.933.164.219-.11.439-.383.384-.766l-3.018-4.426c-.11-.11-.11-.274-.055-.438.055-.164.22-.273.33-.273l6.035-1.202c.439-.11.548-.437.548-.711 0-.273-.219-.601-.603-.656l-8.01.438c-.22 0-.439-.164-.494-.383l-1.591-7.378-3.402.711z"/>
    <path fill="#FFC" d="M237.638 13.012c1.756 2.404 2.524 4.754 1.811 5.3-.768.547-2.798-.983-4.499-3.333-1.701-2.35-2.03-5.684-2.03-5.684s3.017 1.312 4.718 3.717z"/>
    <path fill="#000" d="M239.065 18.914c-1.262 0-3.128-1.749-4.554-3.662-1.811-2.459-2.14-5.738-2.14-5.902 0-.164.055-.328.22-.437.109-.11.329-.11.493-.055.11.055 3.182 1.367 4.938 3.826 1.646 2.295 2.908 5.137 1.701 5.957-.165.219-.384.273-.658.273zm-5.542-8.799c.22 1.093.713 3.006 1.811 4.536 1.865 2.569 3.566 3.443 3.84 3.225.275-.219 0-2.022-1.92-4.646-1.097-1.475-2.743-2.568-3.731-3.115z"/>
    <path fill="#FFC" d="M243.508 13.395c-.494 2.897-1.591 5.192-2.524 5.028-.933-.164-1.262-2.623-.823-5.574.439-2.952 2.579-5.466 2.579-5.466s1.207 3.06.768 6.012z"/>
    <path fill="#000" d="M241.094 18.914h-.165c-.494-.055-1.097-.492-1.317-2.131-.164-1.093-.109-2.514.11-3.935.494-3.006 2.579-5.575 2.688-5.684.11-.11.275-.164.439-.164.165 0 .329.164.384.273.055.11 1.262 3.225.768 6.23-.493 2.624-1.536 5.411-2.907 5.411zm1.481-10.438c-.658.929-1.646 2.623-1.92 4.481-.22 1.366-.275 2.678-.11 3.662.165 1.038.439 1.311.549 1.311.384 0 1.426-1.53 1.92-4.645.274-1.803-.11-3.771-.439-4.81z"/>
    <path fill="#FFDB77" d="M200.001 143.794c21.562-19.566 10.644-49.46 10.644-49.46 7.352-10.275 22.275-14.92 36.978-.383 0 0 7.242-12.898 22.824-12.898 9.601 0 13.716 10.384 13.716 10.384 1.92 36.999-5.706 53.231-46.58 56.182-23.811 1.694-37.582-3.825-37.582-3.825z"/>
    <path fill="#000" d="M228.64 148.384c-18.16 0-28.694-4.098-28.804-4.153-.165-.055-.275-.219-.275-.383-.054-.164.055-.328.165-.437 21.068-19.128 10.589-48.64 10.479-48.913-.055-.164-.055-.328.055-.438 4.06-5.629 10.04-9.181 16.35-9.728 7.022-.6 14.319 2.46 20.903 8.854 1.591-2.46 9.053-12.625 22.933-12.625 9.821 0 14.101 10.603 14.155 10.712 0 .055.055.11.055.164 1.866 35.961-4.718 53.668-47.073 56.674-3.183.164-6.145.273-8.943.273zm-27.707-4.809c3.127 1.093 16.185 4.973 36.595 3.498 41.477-2.951 47.951-20.276 46.141-55.581-.384-.875-4.389-10.056-13.223-10.056-15.087 0-22.329 12.57-22.384 12.68-.055.108-.22.218-.329.218-.165 0-.275 0-.385-.11-6.528-6.449-13.661-9.564-20.574-9.017-5.98.492-11.631 3.825-15.526 9.127.877 2.95 9.436 30.659-10.315 49.241z"/>
    <path fill="#A54F08" d="M261.722 80.725c-15.307-2.514-19.916 16.396-29.517 16.888-25.128 1.202-32.425 11.641-32.425 26.233s11.412 26.397 27.378 27.927c22.549 2.186 26.389-22.954 31.821-24.867 9.601-3.334 27.597-10.438 27.597-22.352 0-11.915-14.375-22.134-24.854-23.829z"/>
    <path fill="#000" d="M229.847 152.374c-.878 0-1.811-.055-2.798-.164-16.13-1.585-27.817-13.499-27.817-28.419 0-17.161 10.48-25.686 32.919-26.725 3.841-.164 6.968-3.607 10.315-7.214 4.773-5.192 10.204-11.094 19.312-9.618 10.26 1.694 25.183 11.968 25.183 24.32 0 13.116-21.013 20.385-27.926 22.789-1.482.492-2.963 3.225-4.719 6.395-4.169 7.542-10.369 18.636-24.469 18.636zm29.188-71.375c-7.078 0-11.741 5.028-15.856 9.564-3.457 3.77-6.748 7.323-10.973 7.542-22.11 1.038-31.986 9.017-31.986 25.795 0 14.374 11.302 25.96 26.938 27.436 15.472 1.53 22.001-10.22 26.335-17.981 1.921-3.498 3.457-6.23 5.267-6.831 6.749-2.35 27.268-9.51 27.268-21.916 0-11.805-14.429-21.697-24.36-23.336-.932-.219-1.755-.273-2.633-.273z"/>
    <path fill="#C16614" d="M267.318 85.48c-15.307-2.514-19.916 16.396-29.517 16.888-25.128 1.202-32.425 11.64-32.425 26.232 0 14.593 11.412 26.397 27.377 27.928 22.55 2.186 26.39-22.954 31.822-24.867 9.601-3.334 22-12.679 22-24.593 0-11.915-8.778-19.839-19.257-21.588z"/>
    <path fill="#000" d="M235.443 157.183c-.878 0-1.811-.054-2.799-.164-16.13-1.584-27.816-13.499-27.816-28.419 0-17.16 10.479-25.686 32.919-26.724 3.84-.164 6.968-3.607 10.314-7.214 4.774-5.192 10.205-11.095 19.313-9.62 9.766 1.586 19.586 9.019 19.586 22.08 0 12.68-13.332 21.916-22.33 25.031-1.481.492-2.962 3.224-4.718 6.394-4.17 7.487-10.369 18.636-24.469 18.636zm29.187-71.43c-7.077 0-11.741 5.028-15.855 9.564-3.457 3.772-6.749 7.324-10.973 7.542-22.111 1.039-31.986 9.018-31.986 25.796 0 14.374 11.302 25.96 26.938 27.435 15.472 1.531 22.001-10.22 26.335-17.98 1.92-3.498 3.457-6.23 5.267-6.832 8.724-3.005 21.672-11.968 21.672-24.156 0-12.46-9.437-19.565-18.764-21.095-.933-.219-1.756-.274-2.634-.274z"/>
    <path fill="#3A1900" d="M252.231 126.305c6.06 0 10.973-4.894 10.973-10.93 0-6.037-4.913-10.931-10.973-10.931-6.06 0-10.973 4.894-10.973 10.931 0 6.036 4.913 10.93 10.973 10.93z"/>
    <path fill="#A54F08" d="M252.231 106.302c4.993 0 9.108 4.045 9.108 9.073 0 4.973-4.06 9.072-9.108 9.072-4.993 0-9.107-4.044-9.107-9.072 0-4.974 4.06-9.073 9.107-9.073zm0-3.771c-7.132 0-12.893 5.794-12.893 12.844 0 7.104 5.816 12.843 12.893 12.843 7.078 0 12.893-5.793 12.893-12.843 0-7.105-5.761-12.844-12.893-12.844z"/>
    <path fill="#301500" d="M261.174 115.593l47.403-35.742-5.212-6.777-49.323 33.447 7.132 9.072z"/>
    <path fill="#fff" d="M303.094 74.601l-73.295 49.595.277.407 73.295-49.595-.277-.407zM231.987 126.851l-.274-.437 72.421-50.443.274.382-72.421 50.498zM305.385 77.552l-71.823 51.593.288.399 71.824-51.593-.289-.398zM307.117 78.769l-71.844 53.506.296.394 71.844-53.506-.296-.394z"/>
    <path fill="#A54F08" d="M231.162 145.105l-13.441-20.822 6.748-4.318c6.145 5.302 10.753 11.477 13.442 20.823l-6.749 4.317z"/>
    <path fill="#000" d="M231.054 145.761l-13.936-21.642 7.462-4.755.274.219c6.968 6.012 11.138 12.515 13.552 21.095l.109.328-7.461 4.755zm-12.619-21.369l12.893 20.057 6.09-3.88c-2.359-8.088-6.364-14.319-12.893-20.057l-6.09 3.88z"/>
    <path fill="#CC9666" d="M327.779 63.4l-4.774-5.902-5.267-.655-16.349 13.17.439 3.006 6.419 7.925 2.798.93 16.349-13.172.385-5.301z"/>
    <path fill="#000" d="M311.101 82.201l-3.018-1.038-.055-.055-6.474-7.98-.493-3.278 16.569-13.335h.109l5.377.71.055.11 4.828 5.956-.384 5.575-.11.055-16.404 13.28zm-2.689-1.476l2.579.875 16.13-13.007.329-5.083-4.608-5.738-4.993-.656-16.13 13.007.439 2.787 6.254 7.815z"/>
    <path fill="#FFC" d="M302.157 82.31c1.482-3.77 6.694-3.662 8.614-1.803 1.92 1.858 1.043 5.683-1.81 8.58-2.853 2.897-7.791 4.317-8.614 1.804-.713-2.187.494-5.247 1.81-8.58z"/>
    <path fill="#000" d="M302.487 92.585c-.329 0-.603-.055-.932-.11-.878-.218-1.482-.71-1.701-1.53-.768-2.295.439-5.356 1.81-8.853v-.055c.659-1.694 2.085-2.842 3.951-3.224 2.03-.438 4.224.109 5.431 1.257 2.03 2.022 1.262 6.175-1.81 9.236-1.921 2.022-4.664 3.279-6.749 3.279zm.11-10.11c-1.262 3.224-2.414 6.23-1.811 8.252.165.492.494.765 1.043.874 1.701.437 4.773-.929 6.748-2.896 2.689-2.678 3.512-6.23 1.811-7.87-.933-.93-2.853-1.367-4.554-.984-.878.164-2.524.765-3.237 2.623z"/>
    <path fill="#FFC" d="M213.496 78.32c12.509 3.99 33.851 44.105-24.47 37.109z"/>
    <path fill="#000" d="M201.647 116.741c-3.731 0-7.901-.273-12.674-.82-.274-.054-.439-.273-.439-.546.055-.274.275-.438.549-.438 22.275 2.678 35.717-1.42 37.966-11.531 2.14-9.783-6.968-22.517-13.661-24.648-.275-.055-.384-.328-.329-.601.054-.273.329-.383.603-.328 7.023 2.24 16.624 15.248 14.32 25.741-1.372 6.394-7.297 13.171-26.335 13.171z"/>
    <path fill="#000" d="M203.676 108.051c-1.591 0-4.938-2.076-13.607-11.586-.164-.164-.164-.492.055-.656.165-.164.494-.164.659.055 10.479 11.532 12.728 11.477 13.167 11.204.659-.438 0-3.279-.987-5.684-.055-.164-.055-.383.109-.547.165-.109.384-.164.549-.054 8.559 5.52 9.656 4.754 9.711 4.645.384-.437-.823-2.787-2.579-4.919-.109-.164-.109-.382 0-.546.11-.164.384-.219.549-.164 7.571 3.388 8.723 3.115 8.888 3.06 0-.655-3.347-3.661-6.529-6.011-.219-.164-.219-.438-.11-.656.165-.219.439-.219.659-.11 3.456 2.624 7.461 6.012 6.693 7.269-.384.656-1.371 1.039-8.394-2.022 1.152 1.64 2.304 3.771 1.481 4.7-.713.765-2.414.875-9.711-3.716.659 1.858 1.372 4.645.11 5.465-.164.164-.384.273-.713.273z"/>
    <path fill="#CC9666" d="M318.892 61.761c.576 0 1.042-.465 1.042-1.038 0-.574-.466-1.039-1.042-1.039-.576 0-1.042.465-1.042 1.039 0 .573.466 1.038 1.042 1.038z"/>
    <path fill="#000" d="M318.892 61.98h-.11c-.658-.055-1.207-.601-1.152-1.312 0-.328.164-.601.439-.82.274-.218.548-.328.878-.328.658.055 1.207.602 1.152 1.312 0 .328-.165.601-.439.82-.22.218-.494.328-.768.328zm0-2.022c-.22 0-.384.054-.549.218-.165.164-.274.328-.274.547-.055.437.329.82.768.82.219 0 .439-.055.603-.219.165-.164.275-.328.275-.546.054-.438-.33-.82-.768-.82h-.055z"/>
    <path fill="#CC9666" d="M312.747 66.516c.576 0 1.043-.465 1.043-1.038s-.467-1.038-1.043-1.038c-.575 0-1.042.465-1.042 1.038s.467 1.038 1.042 1.038z"/>
    <path fill="#000" d="M312.747 66.734c-.219 0-.493-.054-.713-.218-.274-.164-.439-.492-.494-.82-.055-.328 0-.656.22-.929.384-.546 1.152-.71 1.701-.273.548.382.713 1.147.274 1.694-.22.328-.604.546-.988.546zm0-2.022c-.274 0-.493.11-.658.328-.11.164-.165.383-.11.601.055.219.165.383.329.492.384.274.878.164 1.098-.218.274-.383.164-.875-.22-1.093-.109-.055-.274-.11-.439-.11z"/>
    <path fill="#CC9666" d="M306.876 71.49c.576 0 1.043-.465 1.043-1.039 0-.573-.467-1.038-1.043-1.038-.575 0-1.042.465-1.042 1.038 0 .574.467 1.039 1.042 1.039z"/>
    <path fill="#000" d="M306.876 71.653h-.11c-.658-.055-1.207-.601-1.152-1.312 0-.327.165-.6.439-.82.22-.218.549-.327.878-.327.658.055 1.207.601 1.152 1.311 0 .328-.165.602-.439.82-.164.219-.439.328-.768.328zm0-2.022c-.219 0-.384.055-.549.219-.164.164-.274.328-.274.546-.055.437.329.82.768.82.22 0 .439-.055.604-.219.164-.164.274-.328.274-.546.055-.437-.329-.82-.768-.82h-.055s.055 0 0 0z"/>
    <path fill="#CC9666" d="M323.775 67.555c.576 0 1.042-.465 1.042-1.039 0-.573-.466-1.038-1.042-1.038-.576 0-1.043.465-1.043 1.038 0 .574.467 1.039 1.043 1.039z"/>
    <path fill="#000" d="M323.774 67.718h-.055c-.658-.054-1.207-.6-1.152-1.311.055-.656.604-1.148 1.207-1.148h.055c.659.055 1.207.601 1.152 1.312 0 .655-.548 1.147-1.207 1.147zm0-2.022c-.439 0-.768.328-.823.765-.055.438.33.82.768.875.439.054.823-.328.878-.765.055-.438-.329-.82-.823-.875.055 0 .055 0 0 0z"/>
    <path fill="#CC9666" d="M317.685 72.31c.576 0 1.042-.466 1.042-1.04 0-.573-.466-1.037-1.042-1.037-.576 0-1.042.464-1.042 1.038 0 .573.466 1.038 1.042 1.038z"/>
    <path fill="#000" d="M317.685 72.473c-.274 0-.494-.055-.713-.219-.275-.164-.439-.492-.494-.765-.055-.328 0-.656.219-.929.384-.546 1.152-.71 1.701-.273.274.164.439.492.494.765.055.328 0 .656-.22.929-.164.273-.493.437-.768.492h-.219zm0-2.022c-.274 0-.494.11-.659.328-.109.164-.164.382-.109.6.055.22.164.383.329.493.164.109.384.164.603.109.22-.055.384-.164.494-.328.275-.382.165-.874-.219-1.093-.11-.055-.275-.11-.439-.11z"/>
    <path fill="#CC9666" d="M311.814 77.228c.576 0 1.042-.465 1.042-1.038 0-.574-.466-1.039-1.042-1.039-.576 0-1.043.465-1.043 1.039 0 .573.467 1.038 1.043 1.038z"/>
    <path fill="#000" d="M311.814 77.446h-.055c-.658-.055-1.207-.601-1.152-1.311.055-.656.604-1.148 1.207-1.148h.055c.659.055 1.207.656 1.152 1.312-.055.6-.548 1.147-1.207 1.147zm0-2.022c-.439 0-.768.328-.823.765-.055.437.33.82.768.875h.055c.439 0 .768-.328.823-.765 0-.492-.329-.875-.823-.875z"/>
    <path fill="#29D37A" d="M65.103 217.289c-5.232 6.458 8.309 18.451 37.484 17.528 10.956-.369-1.662 24.233 28.129 24.233 46.287 0 24.682-18.021 49.857-19.989 25.113-1.968 31.945.738 44.071-2.091 12.125-2.891 32.991-12.977 21.173-22.818-17.727-14.699-91.834-8.918-131.289-8.918-15.018 0-40.685 1.292-49.425 12.055z"/>
    <path fill="#FFC" d="M206.301 196.502c1.846-6.458 14.957-16.729 9.54 4.12l-9.54-4.12z"/>
    <path fill="#000" d="M215.842 200.929c.061 0 .123 0 .123-.061.062-.062.185-.123.185-.246 2.462-9.656.923-12.301-.862-12.793-3.016-.8-8.186 4.428-9.356 8.487-.061.185.062.308.185.431l9.54 4.121c.062.061.123.061.185.061zm-1.231-12.424c.185 0 .369 0 .492.062 2.032.553 2.216 4.736.493 11.563l-8.925-3.814c1.108-3.382 5.355-7.811 7.94-7.811z"/>
    <path fill="#FFC" d="M191.283 179.465c6.893-3.874 26.405-1.537 4.554 11.378l-4.554-11.378z"/>
    <path fill="#000" d="M195.777 191.212c.062 0 .123 0 .185-.062 10.094-5.966 10.956-9.41 9.91-11.255-1.785-3.137-10.464-3.075-14.773-.738-.123.062-.184.246-.123.431l4.555 11.378c.062.061.123.184.185.184 0 .062.061.062.061.062zm2.893-13.1c3.078 0 5.848.799 6.586 2.152.739 1.292.493 4.305-9.294 10.148l-4.247-10.763c2.031-1.045 4.616-1.537 6.955-1.537z"/>
    <path fill="#BEEDAF" d="M188.944 175.344s9.232 26.57 36.869 23.802c20.435-2.029-5.971 14.454-25.605 12.977-9.787-.738-12.742-4.059-12.742-4.059l1.478-32.72z"/>
    <path fill="#000" d="M202.732 212.553c13.11 0 28.067-6.95 30.406-10.824.554-.861.369-1.476.123-1.845-.739-1.107-3.262-1.477-7.571-1.046-27.021 2.706-36.438-23.31-36.5-23.617-.061-.185-.184-.246-.369-.246s-.308.184-.308.307l-1.477 32.72c0 .061 0 .184.062.246.123.123 3.2 3.444 12.987 4.182.985.123 1.785.123 2.647.123zm26.159-13.223c2.893 0 3.631.615 3.816.923.185.307.123.676-.185 1.107-2.4 4.059-18.957 11.439-32.314 10.455-8.556-.615-11.879-3.321-12.433-3.875l1.354-31.059c2.339 5.228 11.694 22.818 32.683 22.818 1.293 0 2.586-.061 3.94-.184 1.292-.123 2.339-.185 3.139-.185zM107.081 184.569h.123c.185-.061.247-.246.185-.43l-1.785-4.798c-.062-.184-.246-.246-.431-.184-.184.061-.246.246-.184.43l1.785 4.798c.061.123.184.184.307.184z"/>
    <path fill="#FFC" d="M189.312 113.657c5.294-2.707 27.76 7.503.8 14.453l-.8-14.453z"/>
    <path fill="#000" d="M190.114 128.478h.061c8.125-2.091 12.557-4.674 13.172-7.688.308-1.599-.492-3.259-2.462-4.735-3.385-2.584-9.356-3.937-11.756-2.707-.123.062-.185.185-.185.308l.8 14.453c0 .123.062.185.123.246.124.062.185.123.247.123zm1.538-14.884c2.709 0 6.525 1.231 8.925 3.014 1.17.923 2.524 2.337 2.216 4.059-.369 1.845-2.831 4.552-12.31 7.012l-.8-13.777c.492-.246 1.169-.308 1.969-.308z"/>
    <path fill="#FFC" d="M186.296 136.659c12.065-.615 28.56 11.132.801 13.838l-.801-13.838z"/>
    <path fill="#000" d="M186.79 150.865l.369-.061c13.11-1.292 15.695-4.428 15.511-6.827-.308-3.936-9.048-8.057-16.311-7.688h-.37l.801 14.576zm.43-13.838c6.709 0 14.465 3.629 14.711 7.073.185 2.891-5.047 5.105-14.526 6.089l-.739-13.162h.554z"/>
    <path fill="#BEEDAF" d="M133.116 217.782s.677-8.057 4.186-11.071c.246-.185-25.975 14.515-38.285 12.239-3.878-.738-4.555 10.333-15.573-1.722-8.31-9.041-9.91-22.879-7.57-23.986 2.092-.984 3.754 1.23 3.754 1.23s1.046-2.583 2.647-2.522c2.031 0 1.539 3.629 3.816 1.476 2.154-2.029 4.124 3.506 4.124 3.506 4.062-3.506 15.572-4.859 15.572-4.859l.924-7.934c-4.494-10.394-4.494-26.262-5.232-33.15 0 0-6.34-2.153-17.788-5.966-6.217-2.091-11.141-7.196-12.557-10.886-20.927-57.198 34.838-48.588 34.838-48.588 2.524-9.84 30.099-34.626 34.961-1.599l15.942 2.091c2.708-10.455 23.39-19.25 28.498 4.736 9.664 41.515 1.293 56.706 1.293 56.706 0 .062 10.833 6.458 12.372 13.346 1.169 5.29 3.2 14.823-8.679 19.251 0 0 6.894 22.941.739 30.998-6.156 8.057-11.326 7.811-11.757 8.61-10.956 18.759-28.867 19.558-30.16 20.604l-16.065-22.51z"/>
    <path fill="#000" d="M149.181 240.66c.062 0 .123 0 .185-.061.184-.123 1.046-.369 1.969-.554 2.155-.492 5.786-1.353 9.91-3.259.185-.062.246-.308.185-.431-.062-.185-.308-.246-.431-.185-4.063 1.907-7.694 2.707-9.787 3.26-.985.246-1.539.369-1.908.492l-12.249-17.221c-.123-.184-.307-.184-.492-.061s-.185.307-.062.492l12.434 17.467s.061.061.246.061c-.062 0-.062 0 0 0zm15.572-5.781c.062 0 .124 0 .185-.062 6.032-3.567 10.956-8.549 14.711-14.945.061-.061.492-.246.923-.369 1.785-.615 5.417-1.783 9.664-6.765.123-.123.123-.369-.062-.492-.123-.123-.369-.123-.492.061-4.124 4.797-7.694 5.966-9.356 6.581-.739.246-1.108.369-1.293.677-3.631 6.273-8.494 11.193-14.464 14.699-.185.123-.246.307-.123.492.061.061.184.123.307.123zm-72.876-11.686c1.97 0 3.2-1.23 4.308-2.398.924-.984 1.724-1.784 2.77-1.599.862.184 1.908.246 2.955.246 3.077 0 7.016-.677 11.571-2.092.185-.061.308-.246.246-.43-.061-.185-.246-.246-.43-.246-4.494 1.353-8.31 2.091-11.387 2.091-1.047 0-1.97-.061-2.832-.246-1.354-.246-2.339.738-3.385 1.784-1.046 1.045-2.154 2.152-3.816 2.152-2.093 0-4.801-1.783-8.248-5.535-.123-.123-.246-.308-.37-.431-.123-.123-.369-.184-.492-.061s-.185.369-.061.492c.123.123.246.307.369.43 3.631 3.998 6.524 5.843 8.802 5.843zm42.47-3.321c.062 0 .123 0 .185-.061.184-.123.184-.308.061-.492l-1.169-1.661c.123-1.046.923-8.057 4.062-10.702.062-.061.123-.123.123-.246 0-.246-.184-.43-.431-.307 0 0-.061 0-.061.061-.062.062-.185.123-.431.246-8.679 4.613-15.449 7.381-19.573 8.857-.185.061-.247.246-.185.43.062.185.246.246.431.185 3.939-1.415 10.279-3.936 18.404-8.242-2.462 3.568-3.016 9.595-3.016 9.841 0 .062 0 .185.061.246l1.231 1.784c.123 0 .185.061.308.061zm-53.796-5.966c.062 0 .123 0 .185-.061.184-.123.184-.308.123-.492-3.878-5.843-5.601-12.608-5.601-16.729 0-1.968.43-2.891.8-3.075.308-.123.615-.246.923-.246 1.354 0 2.4 1.353 2.4 1.353.062.123.185.123.308.123.124 0 .247-.123.247-.185.246-.676 1.23-2.337 2.339-2.337.677 0 .984.554 1.354 1.107.307.492.615 1.046 1.23 1.046.247 0 .432-.062.74-.246.184-.123.246-.308.123-.492-.124-.185-.308-.246-.493-.123-.492.307-.677.061-1.046-.615-.37-.615-.862-1.415-1.908-1.415-1.355 0-2.34 1.476-2.709 2.276-.492-.492-1.415-1.23-2.585-1.23-.43 0-.861.123-1.23.307-.986.492-1.17 2.276-1.17 3.69 0 4.244 1.785 11.194 5.724 17.098 0 .185.123.246.246.246zm111.716-4.366c.123 0 .246-.062.308-.185.984-2.214 1.477-5.166 1.477-8.795 0-8.487-2.708-18.328-3.201-20.173 1.416-.554 2.708-1.169 3.816-1.907.185-.123.185-.307.123-.492-.123-.184-.307-.184-.492-.123-1.108.738-2.462 1.415-3.939 1.968-.185.062-.246.247-.185.431.062.123 3.262 11.009 3.262 20.296 0 3.567-.492 6.396-1.415 8.549-.062.185 0 .369.184.431h.062zM90.215 197.239c.061 0 .184 0 .246-.062 3.94-3.444 15.265-4.735 15.388-4.797.184 0 .308-.123.308-.307l.923-7.934v-.185c-.739-1.783-1.477-3.813-2.031-6.089-.062-.184-.247-.307-.431-.246-.185.062-.308.246-.246.431.554 2.276 1.292 4.305 2.031 6.089l-.862 7.565c-1.723.246-11.08 1.537-15.08 4.612-.246-.553-.677-1.599-1.293-2.398-.123-.123-.307-.185-.492-.062-.123.123-.185.308-.062.492.8 1.107 1.355 2.645 1.416 2.706.062.123.123.185.246.246-.123-.061-.123-.061-.061-.061zm107.222-21.465c.123 0 .185-.061.246-.123 1.785-2.214 2.586-4.858 2.586-8.118 0-2.522-.554-4.92-.924-6.704-1.292-5.843-8.925-11.317-12.248-13.408.061-.184 0-.369-.185-.43-.185-.062-.369 0-.431.184l-.123.246c-.062.062-.062.185-.062.246.062.123.062.185.308.308 3.201 2.029 10.772 7.38 12.003 13.038.369 1.723.923 4.06.923 6.581 0 3.076-.8 5.597-2.462 7.688-.123.123-.123.369.061.492h.308zm-93.681-1.476h.062c.184-.061.307-.184.246-.369-1.17-6.15-1.539-12.546-1.908-17.651-.123-2.091-.246-3.875-.37-5.29 0-.123-.123-.246-.246-.307 0 0-3.631-1.23-10.34-3.506-.185-.061-.37.062-.431.185-.062.184.061.369.184.43 5.786 1.968 9.295 3.137 10.156 3.444.123 1.354.247 3.076.37 5.044.307 5.166.738 11.501 1.908 17.713.061.184.184.307.369.307zM87.26 146.499c.123 0 .246-.062.308-.246.062-.185-.061-.369-.185-.431l-3.57-1.168c-5.97-2.03-10.956-7.012-12.31-10.702-1.662-4.49-2.893-8.733-3.631-12.67-.062-.184-.185-.307-.431-.246-.185.062-.308.246-.246.431.8 3.936 2.03 8.241 3.693 12.731 1.415 3.752 6.34 8.98 12.74 11.132l3.57 1.169h.062zm100.883-2.706c.123 0 .308-.123.308-.246.861-3.199 1.908-8.795 1.908-17.16 0-5.166-.431-10.824-1.17-16.79 0-.185-.184-.308-.369-.308s-.308.185-.308.369c.8 5.966 1.17 11.563 1.17 16.729 0 8.242-1.047 13.777-1.908 16.975-.062.185.061.369.246.431h.123zM66.825 117.715c.062 0 .062 0 0 0 .246 0 .37-.184.308-.369-.246-1.968-.37-3.936-.37-5.72 0-10.763 4.494-18.39 13.357-22.571.185-.062.246-.308.185-.43-.062-.185-.308-.247-.43-.185-9.11 4.305-13.727 12.116-13.727 23.186 0 1.845.123 3.814.37 5.782 0 .184.184.307.307.307zm121.503-11.808c.246-.062.369-.185.307-.369-.738-4.675-1.723-9.656-2.893-14.761-2.215-10.271-7.016-13.838-10.709-15.069-.185-.061-.37.062-.431.246-.062.185.061.37.246.431 3.508 1.107 8.125 4.551 10.217 14.515 1.17 5.104 2.155 10.025 2.893 14.699.062.185.185.308.37.308zM83.752 87.579h.123c5.355-1.722 10.956-2.091 14.772-2.091 4.247 0 7.263.43 7.325.43.185 0 .308-.062.369-.246.677-2.522 3.078-6.15 6.278-9.471.124-.123.124-.37 0-.492-.123-.124-.369-.124-.492 0-3.201 3.26-5.601 6.826-6.401 9.471-.862-.123-3.57-.43-7.079-.43-5.478 0-10.648.737-14.957 2.152-.184.062-.246.246-.246.43.062.124.185.247.308.247zm73.184-1.169c.124 0 .308-.123.308-.246 1.416-5.412 7.633-10.148 13.665-10.332.184 0 .307-.185.307-.37 0-.184-.184-.307-.369-.307-6.278.184-12.618 4.92-14.218 10.579l-14.957-1.969c-.185 0-.37.123-.37.308 0 .184.123.369.308.369l15.326 1.968s-.061 0 0 0zm-16.557-5.412h.062c.184-.062.307-.246.246-.43-2.462-11.194-8.002-13.531-12.187-13.531-4.001 0-8.741 2.09-13.357 5.904-.123.123-.185.307-.062.492.124.123.308.184.493.061 4.493-3.69 9.048-5.781 12.926-5.781 5.724 0 9.602 4.367 11.51 13.039.061.123.184.246.369.246z"/>
    <path fill="#000" d="M141.303 131.184c7.755 0 13.233-2.275 16.557-4.243 3.878-2.276 5.663-4.613 5.724-4.736.123-.123.062-.369-.061-.492s-.37-.062-.493.061c0 0-1.785 2.338-5.539 4.552-3.447 2.029-9.356 4.428-17.727 4.12-16.804-.615-62.72-11.931-65.49-13.407l-.74-.369c-1.846-.923-4.308-2.153-6.524-6.827-.061-.185-.308-.246-.43-.185-.185.062-.247.308-.185.431 2.339 4.92 4.924 6.212 6.832 7.134l.739.369c2.77 1.476 48.933 12.854 65.798 13.469.554.123 1.046.123 1.539.123zM166.075 95.47c-1.892-.418-2.968-2.827-2.404-5.38.564-2.555 2.555-4.287 4.447-3.87 1.892.418 2.969 2.826 2.405 5.38-.564 2.554-2.556 4.286-4.448 3.87zM121.444 84.405c-1.892-.417-2.968-2.826-2.404-5.38.564-2.554 2.555-4.286 4.447-3.87 1.892.418 2.969 2.827 2.405 5.38-.564 2.555-2.555 4.287-4.448 3.87z"/>
    <path fill="#fff" d="M153.797 128.541l-6.586-12.732-7.756 15.007c0-.061 6.463.677 14.342-2.275z"/>
    <path fill="#000" d="M141.364 131.185c2.524 0 7.263-.308 12.557-2.338.061-.061.184-.123.184-.184.062-.062 0-.185 0-.308l-6.647-12.792c-.062-.123-.185-.185-.308-.185s-.246.062-.308.185l-7.755 15.006c-.062.123-.062.246 0 .308.061.123.123.185.246.185.123.061.8.123 2.031.123zm12.003-2.83c-6.34 2.276-11.695 2.214-13.357 2.091l7.202-13.899 6.155 11.808zM83.304 111.308c-1.294-.287-2.038-1.891-1.662-3.583.377-1.691 1.731-2.828 3.025-2.541 1.295.288 2.039 1.892 1.662 3.583-.376 1.691-1.73 2.829-3.025 2.541zM72.414 109.023c-1.294-.288-2.038-1.892-1.662-3.583.376-1.691 1.73-2.829 3.025-2.541 1.294.287 2.038 1.891 1.662 3.583-.377 1.691-1.731 2.828-3.025 2.541zM133.363 93.421c.123 0 .246-.061.307-.184.062-.185 0-.37-.184-.43-.123-.062-15.142-7.197-27.514-7.504-.184 0-.308.123-.369.308 0 .184.123.368.308.368 12.248.37 27.144 7.38 27.267 7.442h.185z"/>
    <path fill="#4FD2E8" d="M152.505 144.223l-39.762 15.929-5.663.984-24.928-13.53 15.634 38.316 26.713 20.419 5.971-.492s-.308-2.829 7.017-4.182c7.324-1.353 31.452-10.947 31.452-10.947l-16.434-46.497z"/>
    <path fill="#000" d="M124.5 206.649l6.032-.492c.061 0 .184-.062.246-.123.061-.062.061-.185.061-.246 0 0-.061-2.522 6.771-3.813 7.263-1.292 30.529-10.579 31.514-11.009.185-.062.246-.246.185-.431l-16.434-46.496c0-.062-.123-.185-.185-.185-.061-.061-.185-.061-.246 0l-39.762 15.929-5.478.923-24.805-13.469c-.124-.062-.308-.062-.37.061-.123.123-.123.246-.061.369l15.634 38.317c0 .061.061.123.123.123l26.713 20.419c-.062.123 0 .123.062.123zm5.662-1.107l-5.539.43-26.529-20.234-15.203-37.333 24.066 13.101c.062.061.124.061.247.061l5.662-.984 39.455-15.806 16.249 45.881c-2.831 1.107-24.312 9.595-31.083 10.825-6.155.984-7.14 3.198-7.325 4.059z"/>
    <path fill="#000" d="M124.5 206.649l6.032-.492c.123 0 .185-.062.246-.185.062-.061.062-.184 0-.307l-17.727-45.697c-.061-.123-.184-.246-.369-.185l-5.663.985c-.123 0-.184.061-.246.184-.061.062-.061.185 0 .308l17.419 45.143c.062.184.185.246.308.246zm5.478-1.107l-5.294.43-17.172-44.528 4.985-.861 17.481 44.959z"/>
    <path fill="#FFC" d="M168.632 181.617s-13.418 19.742-5.478-3.813c0 0 2.154 2.521 5.478 3.813z"/>
    <path fill="#000" d="M161.369 189.797c2.032 0 6.032-5.474 7.694-7.934.062-.123.123-.246.062-.369-.062-.123-.123-.246-.246-.308-3.201-1.23-5.294-3.628-5.294-3.69-.123-.123-.246-.184-.431-.184-.184.061-.307.123-.369.307-3.262 9.779-2.77 11.563-1.785 12.055.062.061.185.123.369.123zm6.586-7.995c-2.892 4.12-5.909 7.38-6.647 7.072-.123-.061-1.046-.861 2.031-10.209.8.799 2.401 2.214 4.616 3.137z"/>
    <path fill="#FFC" d="M157.614 168.578s-22.835-7.072 2.032-6.396c0 .062-1.785 2.829-2.032 6.396z"/>
    <path fill="#000" d="M157.614 169.07c.062 0 .185 0 .247-.061.123-.062.184-.185.184-.369.246-3.444 1.97-6.15 1.97-6.15.061-.123.123-.308 0-.492-.062-.123-.246-.247-.369-.247-10.28-.307-11.88.739-12.064 1.784-.37 2.091 6.77 4.49 9.848 5.474.061.061.123.061.184.061zm1.231-6.396c-.492.984-1.415 2.952-1.661 5.351-4.801-1.538-8.802-3.506-8.679-4.244 0-.184.492-1.291 10.34-1.107z"/>
    <path fill="#FFC" d="M160.63 177.25s-23.02 6.335-1.724-6.457c0 0 0 3.321 1.724 6.457z"/>
    <path fill="#000" d="M152.013 179.28c2.647 0 6.648-.984 8.741-1.599.123-.062.246-.123.307-.246.062-.123.062-.246 0-.431-1.662-3.013-1.662-6.211-1.662-6.273 0-.184-.061-.307-.246-.43-.123-.062-.308-.062-.492 0-8.864 5.289-9.602 7.011-9.171 7.995.307.738 1.231.984 2.523.984zm7.94-2.337c-4.862 1.291-9.294 1.783-9.602 1.107-.061-.123-.246-1.353 8.125-6.458.123 1.107.431 3.198 1.477 5.351z"/>
    <path fill="#BEEDAF" d="M190.36 180.142c-24.066 11.624-48.256-13.101-22.897-23.249z"/>
    <path fill="#000" d="M177.495 183.524c4.063 0 8.494-.861 13.049-3.075.185-.062.246-.308.185-.431-.062-.184-.308-.246-.431-.184-11.141 5.412-21.605 2.644-27.206-1.354-4.185-3.013-6.401-7.011-5.97-10.824.369-2.952 2.462-7.196 10.525-10.456.185-.061.246-.246.185-.43-.062-.185-.246-.246-.431-.185-8.371 3.321-10.587 7.811-10.956 11.009-.493 4.06 1.846 8.365 6.216 11.502 3.447 2.46 8.679 4.428 14.834 4.428z"/>
    <path fill="#FFC" d="M95.138 177.497s13.11 14.269-4.063 3.629c0 0 2.401-1.23 4.063-3.629z"/>
    <path fill="#000" d="M99.263 185.43c.431 0 .677-.123.862-.369 1.108-1.291-2.955-5.965-4.678-7.872-.062-.062-.185-.123-.308-.123s-.246.061-.307.184c-1.54 2.338-3.878 3.506-3.878 3.506-.123.062-.185.185-.185.308s.062.246.185.307c4.985 3.198 7.263 4.059 8.31 4.059zm-4.062-7.38c2.77 3.075 4.74 6.027 4.37 6.519-.062.062-.862.677-7.694-3.505.739-.431 2.154-1.415 3.324-3.014z"/>
    <path fill="#FFC" d="M95.201 170.363s19.266 2.337-.738 5.412c0 0 1.046-2.522.738-5.412z"/>
    <path fill="#000" d="M94.462 176.143c.061 0 .061 0 0 0 8.371-1.23 9.417-2.337 9.417-3.198 0-1.722-6.094-2.644-8.679-2.952-.123 0-.246 0-.308.123-.061.062-.123.185-.123.308.308 2.767-.677 5.166-.677 5.227-.061.123-.061.246.062.369.123.062.184.123.308.123zm1.108-5.35c4.062.553 7.57 1.537 7.57 2.152 0 .123-.246 1.107-8.124 2.337.307-.861.738-2.521.553-4.489z"/>
    <path fill="#FFC" d="M92.246 163.413s18.711-5.167 1.416 5.227c0 0 0-2.644-1.416-5.227z"/>
    <path fill="#000" d="M93.663 169.009c.061 0 .123 0 .184-.062 7.202-4.305 7.817-5.719 7.448-6.519-.677-1.538-6.648-.123-9.171.615-.123 0-.185.123-.246.246-.062.123-.062.246 0 .308 1.354 2.46 1.354 5.043 1.354 5.043 0 .123.061.246.184.307.124.062.185.062.247.062zm5.847-6.52c.616 0 1.046.062 1.108.247.061.123.246 1.107-6.586 5.289-.062-.923-.37-2.645-1.231-4.367 2.77-.738 5.293-1.169 6.709-1.169z"/>
    <path fill="#BEEDAF" d="M95.693 171.223c-.8-5.781-4.74-10.947-8.186-10.517-3.447.431-3.078 5.843-2.278 11.686.8 5.781 1.478 7.565 5.725 10.21 2.954 1.845 5.6-5.597 4.74-11.379z"/>
    <path fill="#000" d="M91.877 183.216c.37 0 .74-.123 1.108-.369 2.216-1.414 3.694-7.073 3.016-11.686-.369-2.829-1.538-5.658-3.2-7.749-1.662-2.153-3.632-3.26-5.417-3.014-3.816.554-3.323 6.52-2.523 12.055.861 5.904 1.6 7.749 5.847 10.456.43.184.8.307 1.17.307zM88 161.075c1.415 0 2.954.984 4.37 2.768 1.539 2.029 2.647 4.735 3.016 7.441.615 4.244-.739 9.718-2.708 11.01-.493.307-.985.307-1.478 0-4.124-2.584-4.739-4.306-5.54-9.964-.922-6.458-.922-10.886 1.97-11.255H88z"/>
    <path fill="#BEEDAF" d="M150.228 240.23s7.878-20.603.554-22.633c-4.001-1.107-3.878 1.292-6.155 1.23-2.278-.061-1.17-3.936-5.294-3.936-3.57 0-3.693 3.198-6.155 2.891l-3.447-2.583c-1.354-.615-3.201.307-3.816 1.66-.369.8.246 2.399-.308 3.567-2.154 4.49-3.508 11.379-.492 19.558 3.693 10.025 13.356 10.087 18.958 6.95 3.139-1.722 6.155-6.704 6.155-6.704z"/>
    <path fill="#000" d="M136.994 249.148c2.832 0 5.417-.861 7.263-1.907 3.139-1.783 6.094-6.642 6.217-6.827v-.061c.246-.615 5.786-15.192 2.893-20.973-.554-1.107-1.416-1.845-2.524-2.153-2.585-.738-3.57-.061-4.431.554-.554.369-.985.677-1.785.615-.739 0-.985-.492-1.416-1.353-.554-1.107-1.293-2.583-3.878-2.583h-.061c-2.032 0-3.078.984-3.878 1.845-.677.676-1.17 1.169-2.154 1.107l-3.324-2.522c-1.662-.738-3.632.369-4.309 1.784-.246.43-.184 1.046-.123 1.661.062.676.123 1.353-.185 1.906-1.661 3.444-3.877 10.579-.492 19.804 1.539 4.059 4.186 6.95 7.694 8.242 1.539.615 3.078.861 4.493.861zm12.926-9.041c-.246.369-3.078 4.981-5.97 6.581-2.709 1.537-7.079 2.583-11.203 1.045-3.324-1.23-5.847-3.936-7.263-7.811-3.324-8.979-1.169-15.929.431-19.312.369-.738.308-1.537.246-2.275-.061-.554-.061-1.046.062-1.292.615-1.23 2.277-1.968 3.385-1.476l3.385 2.522c.062.061.124.061.185.061 1.293.185 2.031-.553 2.77-1.292.8-.799 1.6-1.599 3.385-1.599h.062c2.154 0 2.708 1.107 3.262 2.153.431.861.862 1.722 2.031 1.722.985 0 1.6-.369 2.154-.738.801-.553 1.601-1.107 3.878-.492.923.246 1.601.861 2.093 1.784 2.708 5.412-2.585 19.681-2.893 20.419z"/>
    <path fill="#FFC" d="M128.808 235.003c.185 4.243 3.693 7.872 8.248 7.687 3.816-.123 8.002-2.337 8.74-7.995.431-3.444-4.001-6.212-8.556-6.212-4.554 0-8.617 1.476-8.432 6.52z"/>
    <path fill="#000" d="M136.749 243.12h.308c3.939-.123 8.371-2.398 9.109-8.364.185-1.23-.246-2.46-1.231-3.567-1.662-1.845-4.678-3.075-7.755-3.075-3.324 0-5.786.738-7.263 2.275-1.108 1.169-1.601 2.706-1.539 4.674.246 4.49 3.939 8.057 8.371 8.057zm.431-14.207c2.831 0 5.601 1.107 7.14 2.829.8.923 1.169 1.907 1.046 2.952-.677 5.413-4.739 7.504-8.309 7.627h-.308c-4.001 0-7.386-3.198-7.509-7.319-.062-1.722.369-3.075 1.292-4.059 1.293-1.353 3.57-2.03 6.648-2.03z"/>
    <path fill="#FFC" d="M82.829 212.185c2.339 4.059 5.416 6.888 6.832 5.904 1.17-.799 1.354-3.69-1.477-9.287-1.724-3.383-4.617-5.228-6.094-4.367-1.539.8-2.093 2.953.739 7.75z"/>
    <path fill="#000" d="M88.985 218.58c.308 0 .615-.061.862-.246 1.6-1.168 1.108-4.797-1.354-9.717-1.17-2.276-3.016-4.121-4.74-4.613-.739-.246-1.354-.184-1.847.123-.615.369-1.046.923-1.23 1.599-.431 1.476.246 3.752 1.908 6.643 1.97 3.321 4.37 5.842 6.032 6.211h.369zm-6.155-14.022c.184 0 .43.061.677.123 1.292.369 3.077 1.845 4.308 4.305 2.709 5.412 2.586 8.118 1.6 8.856-.184.123-.43.185-.738.123-1.477-.307-3.755-2.706-5.601-5.904-1.6-2.768-2.216-4.797-1.846-6.089.123-.553.43-.922.923-1.168.184-.185.43-.246.677-.246z"/>
    <path fill="#BEEDAF" d="M120.313 150.866c-9.294 6.027-36.623-5.904-36.623-5.904z"/>
    <path fill="#000" d="M112.804 152.957c3.078 0 5.786-.492 7.694-1.784.185-.123.185-.307.123-.492-.123-.185-.307-.185-.492-.123-9.048 5.904-36.008-5.781-36.254-5.904-.184-.062-.37 0-.43.184-.062.185 0 .369.184.431.8.43 17.542 7.688 29.175 7.688z"/>
    <path fill="#BEEDAF" d="M95.692 220.857c1.54-4.675.924-12.547-2.4-16.668z"/>
    <path fill="#000" d="M95.692 221.225c.123 0 .246-.061.308-.246 1.6-4.797.985-12.792-2.462-16.975-.123-.123-.308-.184-.492-.061-.124.123-.185.307-.062.492 3.262 3.998 3.816 11.808 2.339 16.298-.062.185.062.369.246.431.062.061.062.061.123.061z"/>
    <path fill="#fff" d="M151.767 144.408s-4.063-.553-5.109-.492c-11.449.431-31.268 5.474-36.377 16.729 0 0-8.248-16.729-28.067-12.977l24.928 13.531 5.663-.984 38.962-15.807z"/>
    <path fill="#000" d="M107.081 161.506s.062 0 0 0l5.725-.984 39.085-15.807c.123-.061.246-.184.184-.369 0-.123-.123-.246-.307-.307-.185 0-3.817-.492-5.048-.492h-.123c-11.202.43-30.775 5.227-36.376 16.298-1.724-2.952-10.403-15.929-28.13-12.608-.122 0-.246.123-.246.307 0 .123.062.308.185.369l24.928 13.531c0 .062.062.062.123.062zm2.647-1.169l-2.585.431-23.944-12.978c16.927-2.644 25.113 10.148 26.529 12.547zm40.686-15.745l-37.793 15.314-1.785.308c3.016-5.843 9.971-9.594 15.326-11.624 6.279-2.46 13.911-4.059 20.435-4.305.677-.062 2.524.123 3.817.307z"/>
    <path fill="#000" d="M112.251 160.399c9.232-9.041 37.361-15.807 37.607-15.868l-.184-.677c-1.17.246-28.56 6.888-37.916 16.052l.493.493zM107.943 161.198l.493-.43c-12.434-13.654-23.144-13.839-23.698-13.839v.677c.123 0 10.895.123 23.205 13.592z"/>
    <path fill="#000" d="M106.834 161.444l.431-.553c-14.096-11.625-23.944-13.531-24.067-13.593l-.123.677c.123.061 9.848 1.968 23.759 13.469z"/>
    <path fill="#000" d="M108.927 160.891l.554-.37c-9.663-13.469-22.035-13.776-22.158-13.776v.676s3.078.062 7.263 1.722c3.816 1.599 9.417 4.859 14.341 11.748zM111.881 160.522c3.817-6.95 13.295-11.009 20.497-13.162 7.879-2.399 14.957-3.137 15.018-3.137l-.061-.676c-1.17.123-28.56 3.013-36.069 16.667l.615.308z"/>
    <defs>
        <clipPath id="clip0">
            <path fill="#fff" d="M0 0H118.049V26.133H0z" transform="translate(191.061 150.28)"/>
        </clipPath>
    </defs>
</svg>
